<?xml version="1.0" encoding="UTF-8"?>
<svg width="32px" height="32px" viewBox="0 0 32 32" version="1.1" xmlns="http://www.w3.org/2000/svg" xmlns:xlink="http://www.w3.org/1999/xlink">
    <!-- Generator: Sketch 52.5 (67469) - http://www.bohemiancoding.com/sketch -->
    <title>home_collect </title>
    <desc>Created with Sketch.</desc>
    <g id="Page-1" stroke="none" stroke-width="1" fill="none" fill-rule="evenodd">
        <g id="题库_切图" transform="translate(-424.000000, -65.000000)">
            <g id="home_collect-" transform="translate(424.000000, 65.000000)">
                <rect id="矩形-copy-7" fill-opacity="0.01" fill="#D8D8D8" x="0" y="0" width="32" height="32"></rect>
                <path d="M21.2777106,14.9311146 C21.4579101,15.2845766 21.8067491,15.5289778 22.2099879,15.5854792 L25.9384173,16.1091022 C26.9543344,16.2516696 27.3596132,17.4572508 26.6245353,18.1497209 L23.926983,20.6903109 C23.6352638,20.9649338 23.5019842,21.3617572 23.570664,21.7500398 L24.7826087,26.5986445 C24.9560082,27.5755923 23.8945312,28.3212788 22.9860538,27.8600701 L19.6513433,26.1656864 C19.2902644,25.9823855 18.8591456,25.9823855 18.4987466,26.1656864 C17.6378575,25.5723814 17.0223332,25.2962255 16.6521739,25.3372189 C16.1535561,25.3924384 15.4659147,25.8129136 14.5892497,26.5986445 C13.6807723,27.0598532 12.6186153,26.3141667 12.7926948,25.3372189 L13.429173,21.7500398 C13.4978528,21.3617572 13.3645732,20.9649338 13.072854,20.6903109 L10.3753017,18.1497209 C9.64022379,17.4572508 10.0461826,16.2516696 11.0614197,16.1091022 L14.7898491,15.5854792 C15.1930879,15.5289778 15.5419269,15.2845766 15.7221264,14.9311146 L17.3894817,11.6671759 C17.8437204,10.777608 19.1561166,10.777608 19.6103553,11.6671759 L21.2777106,14.9311146 Z" id="Fill-1" fill="#5CCCE5"></path>
                <path d="M18.1329258,5.0169327 L20.5846709,9.99473375 C20.8500865,10.5330222 21.3630578,10.9062951 21.956398,10.9922821 L27.4388415,11.7910166 C28.9326101,12.0082207 29.5289269,13.8472486 28.4479167,14.90295 L24.4805743,18.7773343 C24.0514445,19.1963345 23.8554835,19.8002314 23.9571848,20.3921996 L24.8933327,25.8625619 C25.1488262,27.3531685 23.5870913,28.4898865 22.2510837,27.7865826 L17.3475934,25.202997 C16.8167623,24.9241606 16.1832377,24.9241606 15.6524066,25.202997 L10.7489163,27.7865826 C9.41290869,28.4898865 7.85117383,27.3531685 8.1066673,25.8625619 L9.04281523,20.3921996 C9.14451652,19.8002314 8.94855551,19.1963345 8.51942569,18.7773343 L4.55208334,14.90295 C3.47107309,13.8472486 4.06738989,12.0082207 5.56115853,11.7910166 L11.043602,10.9922821 C11.6369422,10.9062951 12.1499135,10.5330222 12.4153291,9.99473375 L14.8670742,5.0169327 C15.53483,3.66102243 17.46517,3.66102243 18.1329258,5.0169327 Z" id="Stroke-3" stroke="#4A4A4A" stroke-width="2"></path>
            </g>
        </g>
    </g>
</svg>