<?xml version="1.0" encoding="UTF-8"?>
<svg width="13px" height="12px" viewBox="0 0 13 12" version="1.1" xmlns="http://www.w3.org/2000/svg" xmlns:xlink="http://www.w3.org/1999/xlink">
    <!-- Generator: Sketch 52.5 (67469) - http://www.bohemiancoding.com/sketch -->
    <title>home_switch</title>
    <desc>Created with Sketch.</desc>
    <g id="Page-1" stroke="none" stroke-width="1" fill="none" fill-rule="evenodd">
        <g id="题库_切图" transform="translate(-437.000000, -177.000000)" fill="#4A4A4A" fill-rule="nonzero">
            <g id="home_switch" transform="translate(437.000000, 177.000000)">
                <path d="M10.0961996,2.47306497 L9.38347304,1.52985956 C9.06946003,1.11428813 9.14521027,0.51783341 9.55265585,0.197576979 C9.96010142,-0.122679451 10.5449525,-0.0454478296 10.8589655,0.370098866 L12.7276897,2.84314346 C13.1996551,3.4677004 12.7631029,4.37293318 11.9899556,4.37293318 L0.931415053,4.37293318 C0.417002281,4.37293318 0,3.94761503 0,3.42299907 C0,2.89835838 0.417002281,2.47306497 0.931415053,2.47306497 L10.0961996,2.47306497 Z M3.46083757,10.492092 C3.76294107,10.9167175 3.67033319,11.5107232 3.25401006,11.8188333 C2.83766268,12.1269682 2.25523721,12.032519 1.95313371,11.6078935 L0.179224631,9.11471233 C-0.267587783,8.48671683 0.172287529,7.6068651 0.93308869,7.6068651 L11.9560705,7.6068651 C12.4704833,7.6068651 12.8874856,8.03218325 12.8874856,8.55679921 C12.8874856,9.0814399 12.4704833,9.50673331 11.9560705,9.50673331 L2.7597537,9.50673331 L3.46083757,10.492092 Z" id="形状"></path>
            </g>
        </g>
    </g>
</svg>