<?xml version="1.0" encoding="UTF-8"?>
<svg width="32px" height="32px" viewBox="0 0 32 32" version="1.1" xmlns="http://www.w3.org/2000/svg" xmlns:xlink="http://www.w3.org/1999/xlink">
    <!-- Generator: Sketch 52.5 (67469) - http://www.bohemiancoding.com/sketch -->
    <title>home_question _wrong</title>
    <desc>Created with Sketch.</desc>
    <g id="Page-1" stroke="none" stroke-width="1" fill="none" fill-rule="evenodd">
        <g id="题库_切图" transform="translate(-298.000000, -66.000000)">
            <g id="home_question-_wrong" transform="translate(298.000000, 66.000000)">
                <rect id="矩形-copy-6" fill-opacity="0.01" fill="#D8D8D8" x="0" y="0" width="32" height="32"></rect>
                <path d="M23.2426786,28 L18.5,28 C14.3578571,28 11,24.4386303 11,20.0467098 L11,12.9245384 C11,11.3094524 12.2342857,10 13.7573214,10 L23.2426786,10 C24.7657143,10 26,11.3094524 26,12.9245384 L26,25.0760297 C26,26.6905476 24.7657143,28 23.2426786,28" id="Fill-1" fill="#5CCCE5"></path>
                <path d="M8,6 L14,12" id="Stroke-3" stroke="#4A4A4A" stroke-width="2" stroke-linecap="round" stroke-linejoin="round"></path>
                <path d="M8,12 L14,6" id="Stroke-5" stroke="#4A4A4A" stroke-width="2" stroke-linecap="round" stroke-linejoin="round"></path>
                <path d="M22.1398684,28 L15.5,28 C9.70123684,28 5,23.251907 5,17.3953488 L5,7.89860465 C5,5.74586047 6.72863158,4 8.86068421,4 L22.1398684,4 C24.2719211,4 26,5.74586047 26,7.89860465 L26,24.1013953 C26,26.2541395 24.2719211,28 22.1398684,28 Z" id="Stroke-7" stroke="#4A4A4A" stroke-width="2"></path>
            </g>
        </g>
    </g>
</svg>