<?xml version="1.0" encoding="UTF-8"?>
<svg width="168px" height="120px" viewBox="0 0 168 120" version="1.1" xmlns="http://www.w3.org/2000/svg" xmlns:xlink="http://www.w3.org/1999/xlink">
    <!-- Generator: Sketch 52.5 (67469) - http://www.bohemiancoding.com/sketch -->
    <title>image_no_collection  </title>
    <desc>Created with Sketch.</desc>
    <g id="Page-1" stroke="none" stroke-width="1" fill="none" fill-rule="evenodd">
        <g id="题库_切图" transform="translate(-332.000000, -426.000000)">
            <g id="image_no_collection--" transform="translate(332.000000, 426.000000)">
                <path d="M10,47.9973836 C10,49.3788592 9.43979058,50.6295133 8.53403141,51.5347985 C7.63298429,52.4400837 6.38219895,53 5,53 C2.23560209,53 0,50.7603349 0,47.9973836 C0,46.6211408 0.560209424,45.3704867 1.46596859,44.4652015 C2.36649215,43.5599163 3.61780105,43 5,43 C6.38219895,43 7.63298429,43.5599163 8.53403141,44.4652015 C9.43979058,45.3704867 10,46.6211408 10,47.9973836" id="Fill-1" fill="#F4F4F4"></path>
                <path d="M168,83.2124663 C168,84.5686887 167.454733,85.796481 166.573133,86.6800805 C165.691534,87.5688172 164.478697,88.1184982 163.133366,88.1184982 L125.815707,88.1184982 C124.475472,88.1184982 123.257539,88.6681793 122.375939,89.556916 C121.49434,90.4456526 120.949073,91.6734449 120.949073,93.0296674 C120.949073,95.736975 123.13014,97.9356993 125.815707,97.9356993 L140.446186,97.9356993 C143.136849,97.9356993 145.317916,100.134424 145.317916,102.841731 C145.317916,104.197954 144.77265,105.425746 143.89105,106.314483 C143.00945,107.198082 141.791517,107.747763 140.446186,107.747763 L120.994936,107.747763 C110.997188,115.438161 98.501403,120 84.9563619,120 C52.0823738,120 25.4356394,93.1375487 25.4356394,59.9974314 C25.4356394,57.2644377 25.6196033,54.5725416 25.9758104,51.9371548 L20.1970005,51.9371548 C17.5063377,51.9371548 15.3252701,49.7384306 15.3252701,47.0259857 C15.3252701,45.6749005 15.870537,44.4471082 16.7521368,43.5583715 C17.6337365,42.6696348 18.8516691,42.1199538 20.1970005,42.1199538 L58.4370263,42.1199538 C59.7772617,42.1199538 60.9957039,41.5702727 61.8767941,40.681536 C62.7583938,39.7927993 63.3036607,38.5650071 63.3036607,37.2139218 C63.3036607,34.5014769 61.1231027,32.3027527 58.4370263,32.3027527 L14.8717304,32.3027527 C12.1810676,32.3027527 10,30.1091656 10,27.3967208 C10,26.0404983 10.5457765,24.8178432 11.4268666,23.9291066 C12.3084664,23.0403699 13.526399,22.4906888 14.8717304,22.4906888 L38.501661,22.4906888 C49.4069989,8.77948542 66.1624899,0 84.9563619,0 C117.825254,0 144.471988,26.8624513 144.471988,59.9974314 C144.471988,66.3829787 143.483883,72.5373518 141.648831,78.3064344 L163.133366,78.3064344 C165.818932,78.3064344 168,80.5000214 168,83.2124663" id="Fill-3" fill="#F4F4F4"></path>
                <path d="M163,103 C163,105.764398 160.760335,108 157.99686,108 C156.615908,108 155.370487,107.439791 154.464678,106.539267 C153.559916,105.633508 153,104.382199 153,103 C153,101.617801 153.559916,100.371728 154.464678,99.4659686 C155.370487,98.5602094 156.615908,98 157.99686,98 C159.378859,98 160.629513,98.5602094 161.534799,99.4659686 C162.440084,100.371728 163,101.617801 163,103" id="Fill-5" fill="#F4F4F4"></path>
                <path d="M110.99973,8.62074554 C109.136852,8.62074554 107.620833,10.1366829 107.620833,12 C107.620833,13.8633171 109.136852,15.3792545 110.99973,15.3792545 C112.863148,15.3792545 114.379167,13.8633171 114.379167,12 C114.379167,10.1366829 112.863148,8.62074554 110.99973,8.62074554 M110.99973,17 C108.242693,17 106,14.7568882 106,12 C106,9.24257158 108.242693,7 110.99973,7 C113.757307,7 116,9.24257158 116,12 C116,14.7568882 113.757307,17 110.99973,17" id="Fill-7" fill="#E5E5E5"></path>
                <path d="M33.9997299,48.6207455 C32.1368523,48.6207455 30.6208331,50.1366829 30.6208331,52 C30.6208331,53.8633171 32.1368523,55.3792545 33.9997299,55.3792545 C35.8631477,55.3792545 37.3791669,53.8633171 37.3791669,52 C37.3791669,50.1366829 35.8631477,48.6207455 33.9997299,48.6207455 M33.9997299,57 C31.2426927,57 29,54.7568882 29,52 C29,49.2425716 31.2426927,47 33.9997299,47 C36.7573073,47 39,49.2425716 39,52 C39,54.7568882 36.7573073,57 33.9997299,57" id="Fill-9" fill="#E5E5E5"></path>
                <path d="M26.9917303,83.6210351 C26.2319677,83.6210351 25.4992237,83.8754669 24.8956286,84.3546199 C23.436625,85.5144186 23.1934578,87.6438674 24.3530954,89.1018537 C25.512733,90.5609205 27.6434185,90.8029278 29.1013413,89.6447497 C30.5603448,88.4854912 30.8040524,86.3555023 29.6438744,84.8975159 C29.0824283,84.191481 28.279436,83.7452799 27.382419,83.6431831 C27.251649,83.6285978 27.1214195,83.6210351 26.9917303,83.6210351 M27.0084818,92 C26.8171902,92 26.6242775,91.9886559 26.4308245,91.9665079 C25.104212,91.8152533 23.9153943,91.1556752 23.0843027,90.110938 C21.3680823,87.9533991 21.7285102,84.8019014 23.8867546,83.0867822 C24.9318335,82.2559623 26.2389925,81.8805267 27.5661454,82.0334019 C28.8938386,82.1846565 30.0821159,82.8442346 30.9132075,83.8889718 C31.7442991,84.9347894 32.1187767,86.2409809 31.9669323,87.5676999 C31.8156282,88.8944188 31.1563747,90.0823077 30.1102152,90.9131276 C29.2169808,91.6229439 28.1329952,92 27.0084818,92" id="Fill-11" fill="#E5E5E5"></path>
                <path d="M144.5,12.4648437 C143.377441,12.4648437 142.464844,13.3779297 142.464844,14.5 C142.464844,15.6220703 143.377441,16.5351562 144.5,16.5351562 C145.62207,16.5351562 146.535156,15.6220703 146.535156,14.5 C146.535156,13.3779297 145.62207,12.4648437 144.5,12.4648437 M144.5,18 C142.569824,18 141,16.4296875 141,14.5 C141,12.5703125 142.569824,11 144.5,11 C146.429688,11 148,12.5703125 148,14.5 C148,16.4296875 146.429688,18 144.5,18" id="Fill-13" fill="#E5E5E5"></path>
                <path d="M86.5,100.464844 C85.3779297,100.464844 84.4648438,101.37793 84.4648438,102.5 C84.4648438,103.62207 85.3779297,104.535156 86.5,104.535156 C87.6220703,104.535156 88.5351562,103.62207 88.5351562,102.5 C88.5351562,101.37793 87.6220703,100.464844 86.5,100.464844 M86.5,106 C84.5703125,106 83,104.429688 83,102.5 C83,100.570312 84.5703125,99 86.5,99 C88.4296875,99 90,100.570312 90,102.5 C90,104.429688 88.4296875,106 86.5,106" id="Fill-15" fill="#E5E5E5"></path>
                <path d="M89.1160826,17 C88.889762,17 88.6634415,16.9139531 88.4907542,16.7412701 L84.259031,12.5090614 C83.9136563,12.1636953 83.9136563,11.6043907 84.259031,11.2590246 C84.6044056,10.9136585 85.1637239,10.9136585 85.5090985,11.2590246 L89.7414111,15.4906439 C90.0861963,15.83601 90.0861963,16.3959039 89.7414111,16.7412701 C89.5687238,16.9139531 89.3424032,17 89.1160826,17" id="Fill-17" fill="#E5E5E5"></path>
                <path d="M84.8839174,17 C84.6575968,17 84.4312762,16.9139531 84.2585889,16.7412701 C83.9138037,16.3959039 83.9138037,15.83601 84.2585889,15.4906439 L88.4909015,11.2590246 C88.8362761,10.9136585 89.3955944,10.9136585 89.740969,11.2590246 C90.0863437,11.6043907 90.0863437,12.1636953 89.740969,12.5090614 L85.5092458,16.7412701 C85.3365585,16.9139531 85.110238,17 84.8839174,17" id="Fill-19" fill="#E5E5E5"></path>
                <path d="M155.115996,43 C154.889653,43 154.66331,42.9139531 154.490606,42.7412701 L150.259056,38.5090614 C149.913648,38.1636953 149.913648,37.6043907 150.259056,37.2590246 C150.604465,36.9136585 151.163838,36.9136585 151.509247,37.2590246 L155.741386,41.4906439 C156.086205,41.83601 156.086205,42.3959039 155.741386,42.7412701 C155.568681,42.9139531 155.342339,43 155.115996,43" id="Fill-21" fill="#E5E5E5"></path>
                <path d="M150.884004,43 C150.657661,43 150.431319,42.9139531 150.258614,42.7412701 C149.913795,42.3959039 149.913795,41.83601 150.258614,41.4906439 L154.490753,37.2590246 C154.836162,36.9136585 155.395535,36.9136585 155.740944,37.2590246 C156.086352,37.6043907 156.086352,38.1636953 155.740944,38.5090614 L151.509394,42.7412701 C151.33669,42.9139531 151.110347,43 150.884004,43" id="Fill-23" fill="#E5E5E5"></path>
                <path d="M58.1160826,108 C57.889762,108 57.6634415,107.913953 57.4907542,107.74127 L53.259031,103.509061 C52.9136563,103.163695 52.9136563,102.604391 53.259031,102.259025 C53.6044056,101.913658 54.1637239,101.913658 54.5090985,102.259025 L58.7414111,106.490644 C59.0861963,106.83601 59.0861963,107.395904 58.7414111,107.74127 C58.5687238,107.913953 58.3424032,108 58.1160826,108" id="Fill-25" fill="#E5E5E5"></path>
                <path d="M53.8839174,108 C53.6575968,108 53.4312762,107.913953 53.2585889,107.74127 C52.9138037,107.395904 52.9138037,106.83601 53.2585889,106.490644 L57.4909015,102.259025 C57.8362761,101.913658 58.3955944,101.913658 58.740969,102.259025 C59.0863437,102.604391 59.0863437,103.163695 58.740969,103.509061 L54.5092458,107.74127 C54.3365585,107.913953 54.110238,108 53.8839174,108" id="Fill-27" fill="#E5E5E5"></path>
                <path d="M45.9147782,98 C42.102023,98 39,94.8901087 39,91.0676826 L39,41.9323174 C39,38.1098913 42.102023,35 45.9147782,35 L116.085222,35 C119.897977,35 123,38.1098913 123,41.9323174 L123,91.0676826 C123,94.8901087 119.897977,98 116.085222,98 L45.9147782,98 Z" id="Fill-29" fill="#FFFFFF"></path>
                <path d="M117.190698,33 L45.8093023,33 C41.496124,33 38,36.5241328 38,40.8718655 L38,91.1281345 C38,95.4758672 41.496124,99 45.8093023,99 L117.190698,99 C121.503876,99 125,95.4758672 125,91.1281345 L125,40.8718655 C125,36.5241328 121.503876,33 117.190698,33 M117.190698,34.5628083 C120.642377,34.5628083 123.449612,37.3930542 123.449612,40.8718655 L123.449612,91.1281345 C123.449612,94.6069458 120.642377,97.4371917 117.190698,97.4371917 L45.8093023,97.4371917 C42.3576227,97.4371917 39.5503876,94.6069458 39.5503876,91.1281345 L39.5503876,40.8718655 C39.5503876,37.3930542 42.3576227,34.5628083 45.8093023,34.5628083 L117.190698,34.5628083" id="Fill-31" fill="#E5E5E5"></path>
                <path d="M108.512563,58 C108.247538,58 107.85992,57.9233227 107.519101,57.5575512 L101.21192,50.7897418 C100.665084,50.2022278 99.8954441,49.8654693 99.1003699,49.8654693 C98.9528513,49.8654693 98.8048241,49.8768673 98.6567968,49.9001813 L89.6017008,51.3192298 C89.525398,51.3311458 89.449604,51.3368448 89.3763534,51.3368448 C88.8915769,51.3373629 88.451056,51.0767637 88.1967136,50.6405319 C87.9423713,50.2037821 87.9342324,49.6955358 88.1748402,49.2468699 L92.5388461,41.1128573 C93.0002231,40.2523098 93.0144663,39.217166 92.5775062,38.3441844 L88.442917,30.0754684 C88.2185871,29.6278387 88.2374084,29.1268457 88.4932768,28.7014938 C88.7496539,28.2751058 89.1871227,28.0207236 89.6627429,28.0207236 C89.7517627,28.0207236 89.843326,28.0295311 89.9343805,28.0471462 L98.9248737,29.7682411 C99.1024046,29.802435 99.2829877,29.819532 99.4630621,29.819532 C100.235754,29.819532 100.964191,29.514377 101.513061,28.9600207 L107.998282,22.4118815 C108.33554,22.0709783 108.709424,22 108.963257,22 C109.572662,22 110.244634,22.4222433 110.348914,23.2299456 L111.540763,32.4514291 C111.66539,33.4176669 112.248852,34.2600812 113.101407,34.7046024 L121.24494,38.9498316 C121.726156,39.2005872 122.007967,39.6793023 121.999828,40.2295139 C121.990672,40.7797254 121.6936,41.2485968 121.205263,41.4832916 L112.96508,45.4435714 C112.09472,45.8611519 111.484807,46.6885416 111.332202,47.6568517 L109.893133,56.8094292 C109.77054,57.5907089 109.105689,58 108.512563,58" id="Fill-33" fill="#F9F9F9"></path>
                <path d="M109.015721,21 C108.479625,21 107.933735,21.2013078 107.494549,21.6442899 L100.922732,28.270673 C100.511381,28.6853461 99.95879,28.9123417 99.3897034,28.9123417 C99.2556794,28.9123417 99.1211398,28.89976 98.9871158,28.8745965 L89.8760594,27.1325497 C89.7337877,27.1052893 89.5940934,27.0927076 89.458523,27.0927076 C87.8914728,27.0927076 86.777527,28.8069696 87.5327008,30.3146815 L91.7230136,38.6820627 C92.049826,39.333692 92.0384855,40.1069448 91.6936314,40.7491378 L87.2713539,48.9796926 C86.4636014,50.4837348 87.5662068,52.2577601 89.1677939,52.2577601 C89.2811989,52.2577601 89.3966657,52.2493723 89.5141945,52.2310239 L98.6902011,50.7946086 C98.8010286,50.7773087 98.9113407,50.7689209 99.0211373,50.7689209 C99.6139359,50.7689209 100.186631,51.0153133 100.601074,51.4593439 L106.991959,58.3080043 C107.435784,58.7834892 108.001778,59 108.559524,59 C109.563158,59 110.538956,58.2975195 110.722466,57.1331843 L112.18075,47.8719753 C112.294155,47.1500979 112.750868,46.5314957 113.4014,46.2190492 L121.751612,42.2122893 C123.386705,41.4275032 123.42382,39.0752421 121.8145,38.2375079 L113.561713,33.9418922 C112.924584,33.6100488 112.487975,32.9809618 112.395189,32.2596088 L111.187426,22.9286759 C111.032783,21.7360318 110.041005,21 109.015721,21 M109.016237,22.5727175 C109.212118,22.5727175 109.596664,22.6901471 109.653882,23.1336534 L110.861645,32.4645863 C111.021442,33.6991695 111.767338,34.774384 112.857056,35.3416108 L121.109843,39.6377507 C121.41449,39.796071 121.455728,40.070248 121.453667,40.2196562 C121.451089,40.3690644 121.401088,40.6416687 121.091802,40.7900284 L112.741589,44.7967883 C111.628674,45.3309881 110.848242,46.3878542 110.653392,47.6234859 L109.195107,56.884695 C109.12758,57.3140469 108.749735,57.4272825 108.559524,57.4272825 C108.388901,57.4272825 108.238898,57.3591314 108.113637,57.2254504 L101.722752,50.37679 C101.022735,49.6266038 100.038173,49.1962034 99.0211373,49.1962034 C98.8324727,49.1962034 98.6417462,49.2108821 98.4551435,49.2402395 L89.279137,50.6761306 C89.2409917,50.6824214 89.2033618,50.6850426 89.1677939,50.6850426 C88.8574768,50.6850426 88.6935551,50.4617167 88.6373681,50.365781 C88.5548917,50.2242364 88.4863333,49.9993378 88.628605,49.7340728 L93.0508824,41.5029937 C93.6411036,40.4047126 93.6596607,39.0831057 93.1013991,37.968049 L88.9110864,29.6006677 C88.7780933,29.3359269 88.8492291,29.1157465 88.9322209,28.9783958 C88.976552,28.9050023 89.1451129,28.665425 89.458523,28.665425 C89.5007921,28.665425 89.5451231,28.669619 89.5899696,28.6780068 L98.7015415,30.4200535 C98.9283514,30.4630411 99.1592851,30.4850592 99.3897034,30.4850592 C100.378388,30.4850592 101.30934,30.0955495 102.01142,29.3873024 L108.583236,22.7614436 C108.707466,22.6361504 108.853346,22.5727175 109.016237,22.5727175" id="Fill-35" fill="#E5E5E5"></path>
                <path d="M122.826628,26 C122.764368,26 122.673809,25.9832123 122.593626,25.9019964 L121.109303,24.3974592 C120.980539,24.2667877 120.798477,24.1919238 120.611698,24.1919238 C120.576323,24.1919238 120.54142,24.1946461 120.506989,24.199637 L118.375543,24.5149728 C118.35762,24.5176951 118.340168,24.5190563 118.322717,24.5190563 C118.209518,24.5190563 118.105752,24.46098 118.046322,24.3647913 C117.986421,24.2681488 117.984534,24.1556261 118.041134,24.0558076 L119.067945,22.2477314 C119.176899,22.0567151 119.180672,21.826225 119.077378,21.6315789 L118.104337,19.7931034 C118.051982,19.6941924 118.056227,19.5830309 118.116128,19.4891107 C118.176501,19.3947368 118.27838,19.3384755 118.390636,19.3384755 C118.411389,19.3384755 118.432614,19.3402904 118.453839,19.3443739 L120.570192,19.7268603 C120.611698,19.7341198 120.654619,19.7382033 120.696597,19.7382033 C120.879131,19.7382033 121.050816,19.6701452 121.180524,19.5467332 L122.706354,18.0911978 C122.785593,18.0158802 122.873323,18 122.932752,18 C123.075194,18 123.233202,18.0934664 123.257728,18.2722323 L123.538368,20.3221416 C123.567611,20.5372051 123.704865,20.7250454 123.905793,20.8239564 L125.823104,21.7676951 C125.935831,21.823049 126.001393,21.9292196 125.999978,22.0508167 C125.997619,22.1728675 125.927813,22.2767695 125.813199,22.3289474 L123.874192,23.2091652 C123.668547,23.3021779 123.524689,23.4863884 123.488843,23.7019056 L123.150661,25.7363884 C123.121417,25.9092559 122.965769,26 122.826628,26" id="Fill-37" fill="#F9F9F9"></path>
                <path d="M122.892336,18 C122.77319,18 122.652239,18.0532638 122.554305,18.1695744 L121.093871,19.913691 C121.002706,20.0223925 120.879499,20.0821784 120.753133,20.0821784 C120.723346,20.0821784 120.69356,20.0789173 120.663774,20.0723952 L118.638752,19.6142182 C118.607612,19.6071526 118.576471,19.603348 118.546234,19.603348 C118.198275,19.603348 117.950506,20.0544595 118.118393,20.4512202 L119.049443,22.6535138 C119.122103,22.8247187 119.119847,23.0279907 119.043124,23.1970216 L118.060174,25.3629002 C117.881005,25.7585738 118.125614,26.2259905 118.481697,26.2259905 C118.506519,26.2259905 118.532694,26.223273 118.558419,26.2189249 L120.597883,25.8406435 C120.622253,25.8362955 120.646624,25.8341214 120.671446,25.8341214 C120.802777,25.8341214 120.930046,25.8987988 121.022113,26.015653 L122.442832,27.8179249 C122.541217,27.9429317 122.667133,28 122.790791,28 C123.014189,28 123.230817,27.8152073 123.271435,27.5086689 L123.595926,25.07158 C123.620748,24.8818958 123.722292,24.7188434 123.866711,24.6367737 L125.722492,23.5823686 C126.085795,23.3758356 126.09437,22.7567803 125.736482,22.5361161 L123.902364,21.4061634 C123.761105,21.3186586 123.664073,21.1528887 123.643313,20.9632045 L123.374784,18.5076363 C123.340485,18.1934888 123.120246,18 122.892336,18 M122.892336,18.4168705 C122.93521,18.4168705 123.019153,18.4473069 123.032241,18.5619871 L123.300319,21.0175553 C123.335521,21.3431165 123.502505,21.6268275 123.745309,21.7768357 L125.578976,22.9073319 C125.645769,22.948095 125.654344,23.0192945 125.653893,23.0578836 C125.653442,23.0964726 125.64261,23.1671286 125.574914,23.2057177 L123.719133,24.2601228 C123.471365,24.4008914 123.297159,24.6797109 123.254285,25.0058155 L122.929794,27.4429045 C122.915352,27.5543236 122.832312,27.5831295 122.790791,27.5831295 C122.753333,27.5831295 122.720838,27.5657373 122.69376,27.5309528 L121.27304,25.7286809 C121.117339,25.5308441 120.898003,25.4172509 120.671446,25.4172509 C120.629023,25.4172509 120.587051,25.4210555 120.545079,25.4286646 L118.505616,25.806946 C118.497944,25.8085766 118.489369,25.8091201 118.481697,25.8091201 C118.413549,25.8091201 118.377896,25.7515082 118.36571,25.7265069 C118.347658,25.6895483 118.332313,25.6319365 118.363905,25.562911 L119.346855,23.3970324 C119.478186,23.1067993 119.482248,22.7584108 119.357687,22.4638296 L118.426186,20.2620795 C118.397302,20.1935975 118.413098,20.1365292 118.43115,20.1012012 C118.441079,20.0821784 118.478086,20.0202185 118.546234,20.0202185 C118.555711,20.0202185 118.564737,20.0213055 118.575117,20.0234795 L120.599688,20.4816566 C120.650234,20.4930703 120.701684,20.4990489 120.753133,20.4990489 C120.973371,20.4990489 121.180973,20.3963259 121.337577,20.2093592 L122.798012,18.4652427 C122.825091,18.4331757 122.857133,18.4168705 122.892336,18.4168705" id="Fill-39" fill="#E5E5E5"></path>
                <path d="M136.22375,34 C136.169181,34 136.089427,33.9853641 136.019642,33.9142033 L134.721006,32.5979813 C134.607671,32.4834174 134.448686,32.4178082 134.284979,32.4178082 C134.254547,32.4178082 134.223589,32.4203317 134.193681,32.4243691 L132.328368,32.7004326 C132.313152,32.702956 132.297411,32.7039654 132.282195,32.7039654 C132.183026,32.7039654 132.092253,32.6534968 132.040307,32.5692141 C131.988362,32.4844268 131.986263,32.386013 132.03611,32.2987022 L132.934398,30.7170151 C133.029369,30.5494593 133.032517,30.3475847 132.942793,30.1775054 L132.091203,28.5690699 C132.04503,28.4822639 132.048703,28.3853641 132.101697,28.3025955 C132.153643,28.2203317 132.243891,28.1708724 132.341486,28.1708724 C132.35985,28.1708724 132.378215,28.1728911 132.397104,28.1759193 L134.248775,28.511031 C134.285504,28.5175919 134.322758,28.5211247 134.359487,28.5211247 C134.518996,28.5211247 134.669585,28.4615717 134.782921,28.3535689 L136.11881,27.0797404 C136.188071,27.0136265 136.264152,27 136.316622,27 C136.441501,27 136.579498,27.0817592 136.601011,27.238212 L136.846571,29.0318673 C136.871756,29.2201154 136.992438,29.3841384 137.168213,29.4709445 L138.845158,30.2966114 C138.944326,30.3450613 139.002043,30.4379236 138.999945,30.5444124 C138.998371,30.6514059 138.937505,30.7422495 138.836763,30.7876712 L137.139879,31.5578226 C136.960431,31.6395818 136.834503,31.8005768 136.803021,31.9893295 L136.506564,33.7693583 C136.481379,33.9207642 136.344956,34 136.22375,34" id="Fill-41" fill="#F9F9F9"></path>
                <path d="M136.281126,27 C136.176711,27 136.070287,27.0372392 135.984947,27.1189719 L134.706861,28.3396435 C134.627044,28.4155728 134.519616,28.4576482 134.409176,28.4576482 C134.383073,28.4576482 134.356969,28.4552301 134.330865,28.4508774 L132.559315,28.1297499 C132.531203,28.1249136 132.504597,28.1224955 132.477991,28.1224955 C132.173279,28.1224955 131.956917,28.4383032 132.103501,28.7159044 L132.918745,30.2572198 C132.981997,30.377159 132.979989,30.5198287 132.912721,30.6378334 L132.052799,32.1540003 C131.895674,32.4306342 132.110027,32.7580489 132.421767,32.7580489 C132.443353,32.7580489 132.465943,32.7561144 132.488533,32.752729 L134.273135,32.4881857 C134.294721,32.485284 134.316307,32.4833495 134.337391,32.4833495 C134.452348,32.4833495 134.563792,32.5288103 134.644613,32.6110267 L135.88756,33.8723228 C135.973903,33.9598591 136.083339,34 136.192272,34 C136.38755,34 136.577305,33.8703883 136.612445,33.656142 L136.896575,31.9499102 C136.918663,31.8169131 137.007015,31.703261 137.133518,31.6452259 L138.757481,30.9076966 C139.075246,30.7630924 139.082274,30.3297637 138.769529,30.1750035 L137.165144,29.3837916 C137.041151,29.3228548 136.956313,29.2067846 136.938241,29.0742711 L136.703306,27.355465 C136.673186,27.1354152 136.479917,27 136.281126,27 M136.281126,27.2916264 C136.318274,27.2916264 136.392068,27.3129059 136.403112,27.3931878 L136.638046,29.1119939 C136.668668,29.3402653 136.814248,29.5390355 137.026593,29.6434987 L138.631982,30.4351941 C138.690213,30.4637281 138.697743,30.5135415 138.697241,30.5401409 C138.696739,30.567224 138.687201,30.6170374 138.628468,30.6436369 L137.004505,31.3816499 C136.787642,31.4803095 136.635035,31.6756943 136.597385,31.9039657 L136.313756,33.609714 C136.300704,33.6875777 136.228918,33.7083736 136.192272,33.7083736 C136.159643,33.7083736 136.131029,33.6957994 136.106933,33.6711344 L134.864488,32.4098383 C134.727443,32.2715213 134.53568,32.1917231 134.337391,32.1917231 C134.300745,32.1917231 134.263095,32.1946248 134.226951,32.1999447 L132.442851,32.464488 C132.435823,32.4654553 132.428293,32.4664226 132.421767,32.4664226 C132.36203,32.4664226 132.330906,32.425798 132.319862,32.4083875 C132.3043,32.3827553 132.291248,32.3416471 132.318356,32.2937681 L133.178278,30.7776012 C133.293235,30.574962 133.297251,30.330731 133.188318,30.1247064 L132.373576,28.5833909 C132.347974,28.535512 132.361528,28.4958546 132.377592,28.4707061 C132.385624,28.4576482 132.418253,28.4141219 132.477991,28.4141219 C132.486023,28.4141219 132.494557,28.4146055 132.503593,28.41654 L134.275143,28.7371839 C134.319319,28.7449219 134.364499,28.7492746 134.409176,28.7492746 C134.601944,28.7492746 134.783667,28.6772143 134.92021,28.5466353 L136.198296,27.3259638 C136.22189,27.3032334 136.250002,27.2916264 136.281126,27.2916264" id="Fill-43" fill="#E5E5E5"></path>
                <path d="M45.9928198,99 C42.1366466,99 39,95.8201531 39,91.9113867 L39,32.4274161 C39,28.8831094 41.8444504,26 45.3406054,26 L72.9146406,26 C75.3659266,26 77.6198654,27.4547373 78.6586151,29.7055995 L86.5570899,45.1457697 L119.00718,45.1457697 C122.862843,45.1457697 126,48.3256166 126,52.2349 L126,91.9113867 C126,95.8201531 122.862843,99 119.00718,99 L45.9928198,99 Z" id="Fill-45" fill="#FFFFFF"></path>
                <path d="M73.4720059,25 L46.0629925,25 C42.1619741,25 39,28.2009708 39,32.1501005 L39,51.8105679 L39,80.5372027 L39,91.1935927 C39,95.5049997 42.4524215,99 46.7107967,99 L119.288696,99 C123.547578,99 127,95.5049997 127,91.1935927 L127,51.8105679 C127,47.4991609 123.547578,44.0041606 119.288696,44.0041606 L87.4950924,44.0041606 L79.8704668,29.1220581 C78.708677,26.6071562 76.2142758,25 73.4720059,25 M73.4720059,26.5394217 C75.6146261,26.5394217 77.5854108,27.8089314 78.4927423,29.7737466 L78.5059214,29.8024825 L78.5201143,29.8307052 L86.1452468,44.7133209 L86.5705267,45.5435823 L87.4950924,45.5435823 L119.288696,45.5435823 C122.702087,45.5435823 125.479333,48.3550794 125.479333,51.8105679 L125.479333,91.1935927 C125.479333,94.6490812 122.702087,97.4605783 119.288696,97.4605783 L46.7107967,97.4605783 C43.2979125,97.4605783 40.5206673,94.6490812 40.5206673,91.1935927 L40.5206673,80.5372027 L40.5206673,51.8105679 L40.5206673,32.1501005 C40.5206673,29.0563761 43.0064513,26.5394217 46.0629925,26.5394217 L73.4720059,26.5394217" id="Fill-47" fill="#E5E5E5"></path>
                <path d="M41,55.5 L128,55.5" id="Stroke-49" stroke="#E5E5E5" stroke-width="3" stroke-linecap="round"></path>
                <path d="M85,86 C75.0749299,86 67,77.9250701 67,68 C67,58.0749299 75.0749299,50 85,50 C94.9250701,50 103,58.0749299 103,68 C103,77.9250701 94.9250701,86 85,86" id="Fill-51" fill="#FFFFFF"></path>
                <path d="M85,49 C75.0587192,49 67,57.5068282 67,67.9997408 C67,78.4936902 75.0587192,87 85,87 C94.9412808,87 103,78.4936902 103,67.9997408 C103,57.5068282 94.9412808,49 85,49 M85,50.7455354 C94.0135065,50.7455354 101.346312,58.4861321 101.346312,67.9997408 C101.346312,77.5138679 94.0135065,85.2544646 85,85.2544646 C75.9864935,85.2544646 68.6536877,77.5138679 68.6536877,67.9997408 C68.6536877,58.4861321 75.9864935,50.7455354 85,50.7455354" id="Fill-53" fill="#E5E5E5"></path>
                <path d="M92.5252964,64.6710405 L92.2509079,65.4175924 C92.1093963,65.8021342 91.6839023,65.9713727 91.3279648,65.7941229 C89.5070229,64.8868445 87.7062285,64.2098907 85.9150281,63.7652642 C85.513519,63.6656238 85.2842223,63.2270058 85.4343685,62.8259407 L85.6531118,62.2416173 C85.7735165,61.9216665 86.0997126,61.7349034 86.4215914,61.8080064 C88.4425683,62.2661519 90.3536937,62.929086 92.1760747,63.7772811 C92.5013114,63.9289949 92.6528966,64.3240516 92.5252964,64.6710405 M82.3671656,64.7146018 C81.1832656,66.2988341 79.699553,67.762897 77.9160278,69.1067906 C77.6248498,69.3255989 77.2161452,69.2615086 76.9945238,68.9670937 L76.549362,68.3767619 C76.3071134,68.0548083 76.3843451,67.5906543 76.7076631,67.3593283 C78.3640677,66.1761612 79.723538,64.8828389 80.7865536,63.4793614 C81.0148909,63.1779366 81.4240751,63.1088393 81.7210095,63.3366603 L82.2270932,63.7262092 C82.5288246,63.9580358 82.5974217,64.406668 82.3671656,64.7146018 M92.6097236,67.2451675 L92.7473976,67.8840677 C92.8289466,68.2621004 92.6015687,68.6376295 92.2389154,68.7232501 L87.1584109,69.9174328 C86.7957576,70.0025527 86.5679,70.3780818 86.649449,70.7566152 L87.3560474,74.0287257 C87.4375964,74.4072591 87.7973715,74.6445935 88.1595452,74.5599742 L95.0365267,72.9431962 C95.3991801,72.8580762 95.7589552,73.0954106 95.8405042,73.473944 L95.9834549,74.1348753 C96.0650039,74.5134086 95.8371463,74.8889378 95.4749727,74.9740577 L78.4201927,78.982706 C78.0575393,79.0678259 77.6977642,78.8304915 77.6162152,78.4519582 L77.4732645,77.7910269 C77.3917155,77.4124935 77.6195731,77.0369644 77.9817467,76.9518445 L84.7949282,75.3505882 C85.1571018,75.2654683 85.3844797,74.8899392 85.3029307,74.5114058 L84.5972917,71.2387946 C84.515263,70.860762 84.1554879,70.6229268 83.7933142,70.7085475 L78.7761302,71.887709 C78.4139566,71.9728289 78.0537017,71.7349938 77.9721527,71.3569611 L77.8344788,70.7180609 C77.7529297,70.3395275 77.9807873,69.9639984 78.3429609,69.8788785 L91.8057461,66.7144196 C92.1679197,66.6292997 92.5281746,66.8666341 92.6097236,67.2451675 M84.6260737,58.7637169 L91.6656737,57.1093859 C92.0278473,57.024266 92.3881021,57.2616004 92.4696512,57.6401337 L93.1992751,61.0239016 C93.2808241,61.4024349 93.053926,61.777964 92.6912726,61.863084 L91.9295088,62.0423366 C91.5668554,62.1274565 91.2070803,61.8896214 91.1255313,61.5115887 L90.8190029,60.0915879 C90.7374539,59.7135552 90.3776787,59.4757201 90.0155051,59.5608401 L77.0228261,62.6151437 C76.6606524,62.6997629 76.4327949,63.0757927 76.5143439,63.4538254 L76.8160753,64.8517952 C76.8976243,65.2298278 76.6697667,65.6053569 76.3075931,65.6909776 L75.5458293,65.8697295 C75.1836556,65.9548494 74.8238805,65.717515 74.7423315,65.3389816 L74.0165451,61.9772448 C73.9349961,61.5987115 74.1628537,61.2231823 74.5250273,61.1380624 L81.0273631,59.6099092 C81.5166572,59.4947469 81.7118952,58.885889 81.398651,58.477814 C81.3943337,58.4723063 81.3900164,58.4667985 81.3856991,58.4612908 C81.0993181,58.0892666 81.2331544,57.5364877 81.6586485,57.3622422 L82.4237703,57.0482998 C82.7235829,56.925627 83.0622512,57.0432928 83.2378214,57.3256907 C83.4556053,57.6771859 83.6748283,58.0492101 83.9017265,58.4407618 C84.0523523,58.6986252 84.34401,58.8303107 84.6260737,58.7637169" id="Fill-55" fill="#E5E5E5"></path>
            </g>
        </g>
    </g>
</svg>