<?xml version="1.0" encoding="UTF-8"?>
<svg width="170px" height="120px" viewBox="0 0 170 120" version="1.1" xmlns="http://www.w3.org/2000/svg" xmlns:xlink="http://www.w3.org/1999/xlink">
    <!-- Generator: Sketch 52.5 (67469) - http://www.bohemiancoding.com/sketch -->
    <title>image_no_mistake  </title>
    <desc>Created with Sketch.</desc>
    <defs>
        <polygon id="path-1" points="0 0.19995 9.54995 0.19995 9.54995 9.75495 0 9.75495"></polygon>
        <polygon id="path-3" points="0.0512926045 0.21025641 159.562547 0.21025641 159.562547 119.999897 0.0512926045 119.999897"></polygon>
    </defs>
    <g id="Page-1" stroke="none" stroke-width="1" fill="none" fill-rule="evenodd">
        <g id="题库_切图" transform="translate(-73.000000, -426.000000)">
            <g id="image_no_mistake--" transform="translate(73.000000, 426.000000)">
                <g id="分组" transform="translate(0.000000, 42.000000)">
                    <mask id="mask-2" fill="white">
                        <use xlink:href="#path-1"></use>
                    </mask>
                    <g id="Clip-2"></g>
                    <path d="M9.54995,4.97495 C9.54995,6.29495 9.01495,7.48995 8.14995,8.35495 C7.28995,9.21995 6.09495,9.75495 4.77495,9.75495 C2.13495,9.75495 -5e-05,7.61495 -5e-05,4.97495 C-5e-05,3.65995 0.53495,2.46495 1.39995,1.59995 C2.25995,0.73495 3.45495,0.19995 4.77495,0.19995 C6.09495,0.19995 7.28995,0.73495 8.14995,1.59995 C9.01495,2.46495 9.54995,3.65995 9.54995,4.97495" id="Fill-1" fill="#F4F4F4" mask="url(#mask-2)"></path>
                </g>
                <g id="分组" transform="translate(10.000000, 0.000000)">
                    <mask id="mask-4" fill="white">
                        <use xlink:href="#path-3"></use>
                    </mask>
                    <g id="Clip-4"></g>
                    <path d="M159.562547,83.2768205 C159.562547,84.6306667 159.012579,85.8563077 158.122032,86.738359 C157.232514,87.6255385 156.007563,88.1742564 154.649363,88.1742564 L116.97528,88.1742564 C115.621711,88.1742564 114.392129,88.7229744 113.502611,89.6101538 C112.612064,90.4973333 112.061582,91.7229744 112.061582,93.0768205 C112.061582,95.7793846 114.263511,97.9742564 116.97528,97.9742564 L131.745698,97.9742564 C134.461582,97.9742564 136.663511,100.169128 136.663511,102.871692 C136.663511,104.225538 136.113029,105.451179 135.222997,106.338359 C134.332965,107.22041 133.103383,107.769128 131.745698,107.769128 L112.107884,107.769128 C102.014508,115.446051 89.3992026,119.999897 75.7246045,119.999897 C42.5361801,119.999897 15.6345723,93.1845128 15.6345723,60.1024615 C15.6345723,57.3742564 15.8202958,54.6870769 16.17991,52.0563077 L10.3458264,52.0563077 C7.62994212,52.0563077 5.42749839,49.8614359 5.42749839,47.1537436 C5.42749839,45.8050256 5.97849518,44.5793846 6.86801286,43.6922051 C7.75855949,42.8050256 8.98762701,42.2563077 10.3458264,42.2563077 L48.9516141,42.2563077 C50.3046688,42.2563077 51.5347653,41.7075897 52.424283,40.8204103 C53.3143151,39.9332308 53.8647974,38.7075897 53.8647974,37.3588718 C53.8647974,34.6511795 51.6633826,32.4563077 48.9516141,32.4563077 L4.96962058,32.4563077 C2.25322186,32.4563077 0.0512926045,30.2665641 0.0512926045,27.5588718 C0.0512926045,26.2050256 0.602289389,24.9845128 1.49180707,24.0973333 C2.38183923,23.2101538 3.61142122,22.6614359 4.96962058,22.6614359 L28.8255691,22.6614359 C39.8352154,8.97425641 56.7509711,0.210153846 75.7246045,0.210153846 C108.907884,0.210153846 135.809492,27.0255385 135.809492,60.1024615 C135.809492,66.4768205 134.811936,72.6204103 132.959331,78.3793846 L154.649363,78.3793846 C157.361132,78.3793846 159.562547,80.5691282 159.562547,83.2768205" id="Fill-3" fill="#F4F4F4" mask="url(#mask-4)"></path>
                </g>
                <path d="M164,103 C164,105.764398 161.760335,108 158.99686,108 C157.615908,108 156.370487,107.439791 155.464678,106.539267 C154.559916,105.633508 154,104.382199 154,103 C154,101.617801 154.559916,100.371728 155.464678,99.4659686 C156.370487,98.5602094 157.615908,98 158.99686,98 C160.378859,98 161.629513,98.5602094 162.534799,99.4659686 C163.440084,100.371728 164,101.617801 164,103" id="Fill-5" fill="#F4F4F4"></path>
                <path d="M63.1999188,107 C58.4210356,107 54.2467811,103.918739 52.8121385,99.3330483 L32.5069018,34.4202134 C31.634178,31.6306325 31.8945543,28.6667674 33.2401751,26.0742258 C34.5857958,23.4816842 36.8555981,21.5707644 39.6307157,20.6941719 L84.5301942,6.50733758 C85.5948555,6.17066402 86.6950227,6 87.8003356,6 C92.5792189,6 96.7534733,9.08126126 98.1876014,13.6669517 L118.493353,78.5797866 C119.365562,81.3693675 119.1057,84.3332326 117.759565,86.9262914 C116.414459,89.5183158 114.144656,91.4292356 111.369024,92.3058281 L66.4695456,106.492662 C65.4048843,106.829336 64.3047171,107 63.1999188,107" id="Fill-7" fill="#FFFFFF"></path>
                <path d="M87.8641855,6 C86.6993291,6 85.5142997,6.1738613 84.3442708,6.54010167 L39.2112564,20.6501291 C33.0342069,22.5816355 29.6006736,29.1271533 31.542963,35.2699096 L51.9543306,99.8341772 C53.5283351,104.813915 58.1510358,108 63.1358145,108 C64.3006709,108 65.4857003,107.826139 66.6557292,107.460413 L111.788744,93.3498709 C117.965793,91.4183645 121.399326,84.8728467 119.457037,78.7300904 L99.0456694,14.1658228 C97.4716649,9.18659983 92.8494814,6 87.8641855,6 M87.8647028,6 L87.8647028,7.54314762 C92.3275719,7.54314762 96.2255995,10.3907694 97.5658051,14.6287671 L117.977173,79.1925203 C119.659283,84.514322 116.674209,90.2044217 111.323732,91.8777081 L66.1907177,105.987736 C65.1955206,106.298937 64.1677366,106.456852 63.1358145,106.456852 C58.6729453,106.456852 54.7744005,103.609231 53.4347121,99.3712329 L33.0233445,34.8069653 C31.3412339,29.485678 34.3257906,23.7955783 39.6773024,22.1222919 L84.8103168,8.01226449 C85.8049966,7.70106306 86.8327807,7.54314762 87.8641855,7.54314762 L87.8647028,6" id="Fill-9" fill="#E5E5E5"></path>
                <path d="M62.9157175,109 C56.8965247,109 52,104.085706 52,98.0458228 L52,29.9541772 C52,23.9137767 56.8965247,19 62.9157175,19 L110.084283,19 C116.103475,19 121,23.9137767 121,29.9541772 L121,98.0458228 C121,104.085706 116.103475,109 110.084283,109 L62.9157175,109 Z" id="Fill-11" fill="#FFFFFF"></path>
                <path d="M110.401389,18 L63.5986111,18 C57.1932018,18 52,23.2200171 52,29.6596499 L52,97.3403501 C52,103.779983 57.1932018,109 63.5986111,109 L110.401389,109 C116.80731,109 122,103.779983 122,97.3403501 L122,29.6596499 C122,23.2200171 116.80731,18 110.401389,18 M110.401389,19.5431663 C115.950731,19.5431663 120.464912,24.0816182 120.464912,29.6596499 L120.464912,97.3403501 C120.464912,102.918382 115.950731,107.456834 110.401389,107.456834 L63.5986111,107.456834 C58.0497807,107.456834 53.5350877,102.918382 53.5350877,97.3403501 L53.5350877,29.6596499 C53.5350877,24.0816182 58.0497807,19.5431663 63.5986111,19.5431663 L110.401389,19.5431663" id="Fill-13" fill="#E5E5E5"></path>
                <path d="M64.5002482,27 C63.1193289,27 62,28.1193289 62,29.5002482 C62,30.8806711 63.1193289,32 64.5002482,32 C65.8806711,32 67,30.8806711 67,29.5002482 C67,28.1193289 65.8806711,27 64.5002482,27 M64.5002482,28.4891294 C65.0576789,28.4891294 65.5108706,28.9428174 65.5108706,29.5002482 C65.5108706,30.0576789 65.0576789,30.5108706 64.5002482,30.5108706 C63.9428174,30.5108706 63.4891294,30.0576789 63.4891294,29.5002482 C63.4891294,28.9428174 63.9428174,28.4891294 64.5002482,28.4891294" id="Fill-15" fill="#E5E5E5"></path>
                <path d="M79.5,27 C78.11944,27 77,28.1193289 77,29.5002482 C77,30.8806711 78.11944,32 79.5,32 C80.88056,32 82,30.8806711 82,29.5002482 C82,28.1193289 80.88056,27 79.5,27 M79.5,28.4891294 C80.0574861,28.4891294 80.5107228,28.9428174 80.5107228,29.5002482 C80.5107228,30.0576789 80.0574861,30.5108706 79.5,30.5108706 C78.9425139,30.5108706 78.4892772,30.0576789 78.4892772,29.5002482 C78.4892772,28.9428174 78.9425139,28.4891294 79.5,28.4891294" id="Fill-17" fill="#E5E5E5"></path>
                <path d="M109.500248,27 C108.119329,27 107,28.1193289 107,29.5002482 C107,30.8806711 108.119329,32 109.500248,32 C110.880671,32 112,30.8806711 112,29.5002482 C112,28.1193289 110.880671,27 109.500248,27 M109.500248,28.4891294 C110.057679,28.4891294 110.510871,28.9428174 110.510871,29.5002482 C110.510871,30.0576789 110.057679,30.5108706 109.500248,30.5108706 C108.942817,30.5108706 108.489129,30.0576789 108.489129,29.5002482 C108.489129,28.9428174 108.942817,28.4891294 109.500248,28.4891294" id="Fill-19" fill="#E5E5E5"></path>
                <path d="M94.4997518,27 C93.1193289,27 92,28.1193289 92,29.5002482 C92,30.8806711 93.1193289,32 94.4997518,32 C95.8806711,32 97,30.8806711 97,29.5002482 C97,28.1193289 95.8806711,27 94.4997518,27 M94.4997518,28.4891294 C95.0571826,28.4891294 95.5108706,28.9428174 95.5108706,29.5002482 C95.5108706,30.0576789 95.0571826,30.5108706 94.4997518,30.5108706 C93.9423211,30.5108706 93.4891294,30.0576789 93.4891294,29.5002482 C93.4891294,28.9428174 93.9423211,28.4891294 94.4997518,28.4891294" id="Fill-21" fill="#E5E5E5"></path>
                <path d="M62,43.5 L112,43.5" id="Stroke-23" stroke="#E5E5E5" stroke-width="3" stroke-linecap="round"></path>
                <path d="M62,54.5 L111,54.5" id="Stroke-25" stroke="#E5E5E5" stroke-width="3" stroke-linecap="round"></path>
                <path d="M76,65.5 L110,65.5" id="Stroke-27" stroke="#E5E5E5" stroke-width="3" stroke-linecap="round"></path>
                <path d="M62,65.5 L69,65.5" id="Stroke-29" stroke="#E5E5E5" stroke-width="3" stroke-linecap="round"></path>
                <path d="M63,75.5 L83,75.5" id="Stroke-31" stroke="#E5E5E5" stroke-width="3" stroke-linecap="round"></path>
                <path d="M62,86.5 L80,86.5" id="Stroke-33" stroke="#E5E5E5" stroke-width="3" stroke-linecap="round"></path>
                <path d="M62,97.5 L82,97.5" id="Stroke-35" stroke="#E5E5E5" stroke-width="3" stroke-linecap="round"></path>
                <path d="M142,13 C142,15.2094403 140.20904,17 137.999742,17 C135.79096,17 134,15.2094403 134,13 C134,10.7905597 135.79096,9 137.999742,9 C140.20904,9 142,10.7905597 142,13 Z" id="Stroke-37" stroke="#E5E5E5" stroke-width="3"></path>
                <path d="M30,96.0002579 C30,98.2090399 28.2090399,100 25.9997421,100 C23.7909601,100 22,98.2090399 22,96.0002579 C22,93.7909601 23.7909601,92 25.9997421,92 C28.2090399,92 30,93.7909601 30,96.0002579 Z" id="Stroke-39" stroke="#E5E5E5" stroke-width="3"></path>
                <path d="M136,32 C136,33.656669 134.657198,35 133,35 C131.343331,35 130,33.656669 130,32 C130,30.343331 131.343331,29 133,29 C134.657198,29 136,30.343331 136,32 Z" id="Stroke-41" stroke="#E5E5E5" stroke-width="3"></path>
                <path d="M38,74 C38,75.656669 36.6570798,77 35.0002647,77 C33.3429202,77 32,75.656669 32,74 C32,72.343331 33.3429202,71 35.0002647,71 C36.6570798,71 38,72.343331 38,74 Z" id="Stroke-43" stroke="#E5E5E5" stroke-width="3"></path>
                <path d="M119,13 L123,17" id="Stroke-45" stroke="#E5E5E5" stroke-width="3" stroke-linecap="round"></path>
                <path d="M119,17 L123,13" id="Stroke-47" stroke="#E5E5E5" stroke-width="3" stroke-linecap="round"></path>
                <path d="M125,72 L129,76" id="Stroke-49" stroke="#E5E5E5" stroke-width="3" stroke-linecap="round"></path>
                <path d="M125,76 L129,72" id="Stroke-51" stroke="#E5E5E5" stroke-width="3" stroke-linecap="round"></path>
                <path d="M40,98 L44,102" id="Stroke-53" stroke="#E5E5E5" stroke-width="3" stroke-linecap="round"></path>
                <path d="M40,102 L44,98" id="Stroke-55" stroke="#E5E5E5" stroke-width="3" stroke-linecap="round"></path>
                <path d="M96,83 L108,95" id="Stroke-57" stroke="#E5E5E5" stroke-width="3" stroke-linecap="round"></path>
                <path d="M96,95 L108,83" id="Stroke-59" stroke="#E5E5E5" stroke-width="3" stroke-linecap="round"></path>
                <path d="M114,89.5 C114,96.4037263 108.403609,102 101.500261,102 C94.5963907,102 89,96.4037263 89,89.5 C89,82.5962737 94.5963907,77 101.500261,77 C108.403609,77 114,82.5962737 114,89.5 Z" id="Stroke-61" stroke="#E5E5E5" stroke-width="3" stroke-linecap="round"></path>
            </g>
        </g>
    </g>
</svg>